<mxfile host="app.diagrams.net" agent="Mozilla/5.0 (Windows NT 10.0; Win64; x64) AppleWebKit/537.36 (KHTML, like Gecko) Chrome/128.0.0.0 Safari/537.36" version="24.7.13">
  <diagram name="Page-1" id="UuVfaZXsv_ITWm6z-eri">
    <mxGraphModel dx="300" dy="155" grid="1" gridSize="10" guides="1" tooltips="1" connect="1" arrows="1" fold="1" page="1" pageScale="1" pageWidth="850" pageHeight="1100" math="0" shadow="0">
      <root>
        <mxCell id="0" />
        <mxCell id="1" parent="0" />
        <mxCell id="NcBqo1Ma31MWhsxyoqmE-14" value="" style="edgeStyle=orthogonalEdgeStyle;rounded=0;orthogonalLoop=1;jettySize=auto;html=1;" edge="1" parent="1" source="NcBqo1Ma31MWhsxyoqmE-1" target="NcBqo1Ma31MWhsxyoqmE-2">
          <mxGeometry relative="1" as="geometry" />
        </mxCell>
        <mxCell id="NcBqo1Ma31MWhsxyoqmE-1" value="Start" style="ellipse;whiteSpace=wrap;html=1;" vertex="1" parent="1">
          <mxGeometry x="140" y="60" width="120" height="80" as="geometry" />
        </mxCell>
        <mxCell id="NcBqo1Ma31MWhsxyoqmE-13" value="" style="edgeStyle=orthogonalEdgeStyle;rounded=0;orthogonalLoop=1;jettySize=auto;html=1;" edge="1" parent="1" source="NcBqo1Ma31MWhsxyoqmE-2" target="NcBqo1Ma31MWhsxyoqmE-3">
          <mxGeometry relative="1" as="geometry" />
        </mxCell>
        <mxCell id="NcBqo1Ma31MWhsxyoqmE-2" value="Open the dictionary" style="rounded=0;whiteSpace=wrap;html=1;" vertex="1" parent="1">
          <mxGeometry x="140" y="190" width="120" height="60" as="geometry" />
        </mxCell>
        <mxCell id="NcBqo1Ma31MWhsxyoqmE-12" style="edgeStyle=orthogonalEdgeStyle;rounded=0;orthogonalLoop=1;jettySize=auto;html=1;entryX=0.5;entryY=0;entryDx=0;entryDy=0;" edge="1" parent="1" source="NcBqo1Ma31MWhsxyoqmE-3" target="NcBqo1Ma31MWhsxyoqmE-4">
          <mxGeometry relative="1" as="geometry" />
        </mxCell>
        <mxCell id="NcBqo1Ma31MWhsxyoqmE-22" value="&lt;font style=&quot;font-size: 14px;&quot;&gt;No&lt;/font&gt;" style="edgeLabel;html=1;align=center;verticalAlign=middle;resizable=0;points=[];" vertex="1" connectable="0" parent="NcBqo1Ma31MWhsxyoqmE-12">
          <mxGeometry x="-0.1367" y="-2" relative="1" as="geometry">
            <mxPoint as="offset" />
          </mxGeometry>
        </mxCell>
        <mxCell id="NcBqo1Ma31MWhsxyoqmE-24" style="edgeStyle=orthogonalEdgeStyle;rounded=0;orthogonalLoop=1;jettySize=auto;html=1;entryX=0.5;entryY=0;entryDx=0;entryDy=0;" edge="1" parent="1" source="NcBqo1Ma31MWhsxyoqmE-3" target="NcBqo1Ma31MWhsxyoqmE-6">
          <mxGeometry relative="1" as="geometry">
            <mxPoint x="420" y="410" as="targetPoint" />
            <Array as="points">
              <mxPoint x="505" y="410" />
            </Array>
          </mxGeometry>
        </mxCell>
        <mxCell id="NcBqo1Ma31MWhsxyoqmE-25" value="&lt;font style=&quot;font-size: 14px;&quot;&gt;Yes&lt;/font&gt;" style="edgeLabel;html=1;align=center;verticalAlign=middle;resizable=0;points=[];" vertex="1" connectable="0" parent="NcBqo1Ma31MWhsxyoqmE-24">
          <mxGeometry x="-0.2629" y="1" relative="1" as="geometry">
            <mxPoint as="offset" />
          </mxGeometry>
        </mxCell>
        <mxCell id="NcBqo1Ma31MWhsxyoqmE-3" value="Word not on page?" style="rhombus;whiteSpace=wrap;html=1;" vertex="1" parent="1">
          <mxGeometry x="135" y="350" width="130" height="120" as="geometry" />
        </mxCell>
        <mxCell id="NcBqo1Ma31MWhsxyoqmE-4" value="Stop" style="ellipse;whiteSpace=wrap;html=1;" vertex="1" parent="1">
          <mxGeometry x="140" y="640" width="120" height="80" as="geometry" />
        </mxCell>
        <mxCell id="NcBqo1Ma31MWhsxyoqmE-18" style="edgeStyle=orthogonalEdgeStyle;rounded=0;orthogonalLoop=1;jettySize=auto;html=1;entryX=0.5;entryY=0;entryDx=0;entryDy=0;" edge="1" parent="1" source="NcBqo1Ma31MWhsxyoqmE-6" target="NcBqo1Ma31MWhsxyoqmE-7">
          <mxGeometry relative="1" as="geometry" />
        </mxCell>
        <mxCell id="NcBqo1Ma31MWhsxyoqmE-6" value="Word &amp;gt; Last word on page?" style="rhombus;whiteSpace=wrap;html=1;" vertex="1" parent="1">
          <mxGeometry x="440" y="415" width="130" height="120" as="geometry" />
        </mxCell>
        <mxCell id="NcBqo1Ma31MWhsxyoqmE-20" style="edgeStyle=orthogonalEdgeStyle;rounded=0;orthogonalLoop=1;jettySize=auto;html=1;" edge="1" parent="1" source="NcBqo1Ma31MWhsxyoqmE-7">
          <mxGeometry relative="1" as="geometry">
            <mxPoint x="200" y="300" as="targetPoint" />
            <mxPoint x="360" y="565" as="sourcePoint" />
            <Array as="points">
              <mxPoint x="360" y="610" />
              <mxPoint x="740" y="610" />
              <mxPoint x="740" y="300" />
            </Array>
          </mxGeometry>
        </mxCell>
        <mxCell id="NcBqo1Ma31MWhsxyoqmE-7" value="Turn Page Backward" style="rounded=0;whiteSpace=wrap;html=1;" vertex="1" parent="1">
          <mxGeometry x="300" y="515" width="120" height="60" as="geometry" />
        </mxCell>
        <mxCell id="NcBqo1Ma31MWhsxyoqmE-27" style="edgeStyle=orthogonalEdgeStyle;rounded=0;orthogonalLoop=1;jettySize=auto;html=1;" edge="1" parent="1" source="NcBqo1Ma31MWhsxyoqmE-10">
          <mxGeometry relative="1" as="geometry">
            <mxPoint x="650" y="610" as="targetPoint" />
          </mxGeometry>
        </mxCell>
        <mxCell id="NcBqo1Ma31MWhsxyoqmE-10" value="Turn Page Forward" style="rounded=0;whiteSpace=wrap;html=1;" vertex="1" parent="1">
          <mxGeometry x="590" y="515" width="120" height="60" as="geometry" />
        </mxCell>
        <mxCell id="NcBqo1Ma31MWhsxyoqmE-19" style="edgeStyle=orthogonalEdgeStyle;rounded=0;orthogonalLoop=1;jettySize=auto;html=1;entryX=0.583;entryY=-0.011;entryDx=0;entryDy=0;entryPerimeter=0;" edge="1" parent="1" source="NcBqo1Ma31MWhsxyoqmE-6" target="NcBqo1Ma31MWhsxyoqmE-10">
          <mxGeometry relative="1" as="geometry" />
        </mxCell>
      </root>
    </mxGraphModel>
  </diagram>
</mxfile>
